<svg id="出圖" xmlns="http://www.w3.org/2000/svg" viewBox="0 0 66 66"><defs><style>.cls-1,.cls-3{fill:#fff;}.cls-1,.cls-2,.cls-3{stroke:#fff;stroke-linecap:round;stroke-linejoin:round;}.cls-1{stroke-width:3px;}.cls-2{fill:#86adc2;}.cls-2,.cls-3{stroke-width:1.5px;}</style></defs><rect class="cls-1" x="28.96" y="4.67" width="8.08" height="8.08" transform="translate(3.5 25.89) rotate(-45)"/><path class="cls-1" d="M56.9,24.53A15.06,15.06,0,0,0,46.12,21.3C43.18,16.81,38.4,14.59,33,14.59S22.82,16.81,19.88,21.3A15.06,15.06,0,0,0,9.1,24.53c-7,5.52-8.26,15.75-1,25a30.68,30.68,0,0,0,6.23,5.93S25.25,59.63,33,59.63s18.68-4.18,18.68-4.18a30.68,30.68,0,0,0,6.23-5.93C65.16,40.28,64,30.05,56.9,24.53Z"/><path class="cls-1" d="M19.76,21.3A15.1,15.1,0,0,0,8.89,24.53c-7,5.52-8.25,15.75-1,25a30.9,30.9,0,0,0,6.22,5.93"/><path class="cls-1" d="M46.24,21.3A15.06,15.06,0,0,1,57.1,24.53c7.05,5.52,8.26,15.75,1,25a30.9,30.9,0,0,1-6.22,5.93"/><path class="cls-1" d="M49.21,33.09C49.21,45.53,42,59.63,33,59.63S16.79,45.53,16.79,33.09,24.05,14.59,33,14.59,49.21,20.65,49.21,33.09Z"/><path class="cls-1" d="M58.33,58.25A4.75,4.75,0,0,1,53.58,63H12.42a4.75,4.75,0,0,1-4.75-4.75h0a4.75,4.75,0,0,1,4.75-4.75H53.58a4.75,4.75,0,0,1,4.75,4.75Z"/><polygon class="cls-1" points="33 30.8 34.84 34.54 38.97 35.13 35.98 38.05 36.69 42.15 33 40.21 29.31 42.15 30.02 38.05 27.03 35.13 31.16 34.54 33 30.8"/><path class="cls-2" d="M56.9,24.53A15.06,15.06,0,0,0,46.12,21.3C43.18,16.81,38.4,14.59,33,14.59S22.82,16.81,19.88,21.3A15.06,15.06,0,0,0,9.1,24.53c-7,5.52-8.26,15.75-1,25a30.68,30.68,0,0,0,6.23,5.93S25.25,59.63,33,59.63s18.68-4.18,18.68-4.18a30.68,30.68,0,0,0,6.23-5.93C65.16,40.28,64,30.05,56.9,24.53Z"/><path class="cls-2" d="M19.76,21.3A15.1,15.1,0,0,0,8.89,24.53c-7,5.52-8.25,15.75-1,25a30.9,30.9,0,0,0,6.22,5.93"/><path class="cls-2" d="M46.24,21.3A15.06,15.06,0,0,1,57.1,24.53c7.05,5.52,8.26,15.75,1,25a30.9,30.9,0,0,1-6.22,5.93"/><path class="cls-2" d="M49.21,33.09C49.21,45.53,42,59.63,33,59.63S16.79,45.53,16.79,33.09,24.05,14.59,33,14.59,49.21,20.65,49.21,33.09Z"/><path class="cls-2" d="M58.33,58.25A4.75,4.75,0,0,1,53.58,63H12.42a4.75,4.75,0,0,1-4.75-4.75h0a4.75,4.75,0,0,1,4.75-4.75H53.58a4.75,4.75,0,0,1,4.75,4.75Z"/><rect class="cls-2" x="28.96" y="4.67" width="8.08" height="8.08" transform="translate(3.5 25.89) rotate(-45)"/><polygon class="cls-3" points="33 30.8 34.84 34.54 38.97 35.13 35.98 38.05 36.69 42.15 33 40.21 29.31 42.15 30.02 38.05 27.03 35.13 31.16 34.54 33 30.8"/></svg>